<svg width="378" height="71" viewBox="0 0 378 71" fill="none" xmlns="http://www.w3.org/2000/svg">
<path d="M0.392578 21.9766C0.392578 19.0794 0.945964 16.3613 2.05273 13.8223C3.15951 11.2832 4.6569 9.06966 6.54492 7.18164C8.46549 5.26107 10.6953 3.7474 13.2344 2.64062C15.7734 1.53385 18.4915 0.980469 21.3887 0.980469H53.5176V14.9941H21.3887C20.4121 14.9941 19.5007 15.1732 18.6543 15.5312C17.8079 15.8893 17.0592 16.3939 16.4082 17.0449C15.7897 17.6634 15.3014 18.3958 14.9434 19.2422C14.5853 20.0885 14.4062 21 14.4062 21.9766C14.4062 22.9531 14.5853 23.8809 14.9434 24.7598C15.3014 25.6061 15.7897 26.3548 16.4082 27.0059C17.0592 27.6243 17.8079 28.1126 18.6543 28.4707C19.5007 28.8288 20.4121 29.0078 21.3887 29.0078H35.4023C38.2995 29.0078 41.0176 29.5612 43.5566 30.668C46.1283 31.7422 48.3581 33.2396 50.2461 35.1602C52.1667 37.0482 53.6641 39.278 54.7383 41.8496C55.8451 44.3887 56.3984 47.1068 56.3984 50.0039C56.3984 52.901 55.8451 55.6191 54.7383 58.1582C53.6641 60.6973 52.1667 62.9271 50.2461 64.8477C48.3581 66.7357 46.1283 68.2331 43.5566 69.3398C41.0176 70.4466 38.2995 71 35.4023 71H4.29883V56.9863H35.4023C36.3789 56.9863 37.2904 56.8073 38.1367 56.4492C38.9831 56.0911 39.7155 55.6029 40.334 54.9844C40.985 54.3333 41.4896 53.5846 41.8477 52.7383C42.2057 51.8919 42.3848 50.9805 42.3848 50.0039C42.3848 49.0273 42.2057 48.1159 41.8477 47.2695C41.4896 46.4232 40.985 45.6908 40.334 45.0723C39.7155 44.4212 38.9831 43.9167 38.1367 43.5586C37.2904 43.2005 36.3789 43.0215 35.4023 43.0215H21.3887C18.4915 43.0215 15.7734 42.4681 13.2344 41.3613C10.6953 40.2546 8.46549 38.7572 6.54492 36.8691C4.6569 34.9486 3.15951 32.7188 2.05273 30.1797C0.945964 27.6081 0.392578 24.8737 0.392578 21.9766ZM106.838 43.0215V29.0078C106.838 27.0872 106.464 25.2806 105.715 23.5879C104.999 21.8626 104.006 20.3652 102.736 19.0957C101.467 17.8262 99.9694 16.8333 98.2441 16.1172C96.5514 15.3685 94.7448 14.9941 92.8242 14.9941C90.9036 14.9941 89.0807 15.3685 87.3555 16.1172C85.6628 16.8333 84.1816 17.8262 82.9121 19.0957C81.6426 20.3652 80.6335 21.8626 79.8848 23.5879C79.1686 25.2806 78.8105 27.0872 78.8105 29.0078V43.0215H106.838ZM120.852 71H106.838V56.9863H78.8105V71H64.8457V29.0078C64.8457 25.1341 65.5781 21.5046 67.043 18.1191C68.5078 14.7012 70.4935 11.7227 73 9.18359C75.5391 6.64453 78.5013 4.64258 81.8867 3.17773C85.3047 1.71289 88.9505 0.980469 92.8242 0.980469C96.6979 0.980469 100.327 1.71289 103.713 3.17773C107.131 4.64258 110.109 6.64453 112.648 9.18359C115.188 11.7227 117.189 14.7012 118.654 18.1191C120.119 21.5046 120.852 25.1341 120.852 29.0078V71ZM160.256 71H146.291V14.9941H125.246V0.980469H181.252V14.9941H160.256V71ZM243.898 43.0215C243.898 46.8952 243.166 50.541 241.701 53.959C240.236 57.3444 238.234 60.3066 235.695 62.8457C233.156 65.3522 230.178 67.3379 226.76 68.8027C223.374 70.2676 219.745 71 215.871 71C211.997 71 208.352 70.2676 204.934 68.8027C201.548 67.3379 198.586 65.3522 196.047 62.8457C193.54 60.3066 191.555 57.3444 190.09 53.959C188.625 50.541 187.893 46.8952 187.893 43.0215V0.980469H201.857V43.0215C201.857 44.9421 202.215 46.7487 202.932 48.4414C203.68 50.1341 204.689 51.6152 205.959 52.8848C207.229 54.1543 208.71 55.1634 210.402 55.9121C212.128 56.6283 213.951 56.9863 215.871 56.9863C217.792 56.9863 219.598 56.6283 221.291 55.9121C223.016 55.1634 224.514 54.1543 225.783 52.8848C227.053 51.6152 228.046 50.1341 228.762 48.4414C229.51 46.7487 229.885 44.9421 229.885 43.0215V0.980469H243.898V43.0215ZM270.07 14.9941V43.0215H284.084C286.005 43.0215 287.811 42.6634 289.504 41.9473C291.197 41.1986 292.678 40.1895 293.947 38.9199C295.217 37.6504 296.21 36.1693 296.926 34.4766C297.674 32.7513 298.049 30.9284 298.049 29.0078C298.049 27.0872 297.674 25.2806 296.926 23.5879C296.21 21.8626 295.217 20.3652 293.947 19.0957C292.678 17.8262 291.197 16.8333 289.504 16.1172C287.811 15.3685 286.005 14.9941 284.084 14.9941H270.07ZM270.07 71H256.057V0.980469H284.084C286.656 0.980469 289.13 1.32227 291.506 2.00586C293.882 2.6569 296.096 3.60091 298.146 4.83789C300.23 6.04232 302.118 7.50716 303.811 9.23242C305.536 10.9251 307.001 12.8132 308.205 14.8965C309.442 16.9798 310.386 19.2096 311.037 21.5859C311.721 23.9622 312.062 26.4362 312.062 29.0078C312.062 31.4167 311.753 33.7604 311.135 36.0391C310.549 38.3177 309.686 40.4824 308.547 42.5332C307.44 44.584 306.073 46.472 304.445 48.1973C302.818 49.9225 300.995 51.4199 298.977 52.6895L306.74 71H291.848L285.744 56.8887L270.07 56.9863V71ZM377.297 71H362.307L335.305 24.9062V71H321.291V0.980469H336.281L363.283 47.123V0.980469H377.297V71Z" fill="#8F719E"/>
</svg>
